<svg width="28" height="28" viewBox="0 0 28 28" fill="none" xmlns="http://www.w3.org/2000/svg">
<path d="M23.3333 3.50195H4.66667C4.35725 3.50195 4.0605 3.62487 3.84171 3.84366C3.62292 4.06245 3.5 4.3592 3.5 4.66862V23.3353C3.5 23.6447 3.62292 23.9415 3.84171 24.1602C4.0605 24.379 4.35725 24.502 4.66667 24.502H14.7175V16.382H11.9898V13.2028H14.7175V10.8695C14.7175 8.15695 16.3742 6.67879 18.8008 6.67879C19.6163 6.67645 20.433 6.71845 21.245 6.80362V9.62695H19.5708C18.2548 9.62695 17.9982 10.2546 17.9982 11.1728V13.197H21.1447L20.7363 16.3761H17.997V24.502H23.3333C23.6428 24.502 23.9395 24.379 24.1583 24.1602C24.3771 23.9415 24.5 23.6447 24.5 23.3353V4.66862C24.5 4.3592 24.3771 4.06245 24.1583 3.84366C23.9395 3.62487 23.6428 3.50195 23.3333 3.50195Z" fill="white"/>
</svg>
