<svg width="14" height="14" viewBox="0 0 14 14" fill="none" xmlns="http://www.w3.org/2000/svg">
<path d="M6.9994 4.30322C6.28402 4.30322 5.59794 4.58741 5.09209 5.09325C4.58625 5.5991 4.30206 6.28518 4.30206 7.00056C4.30206 7.71593 4.58625 8.40201 5.09209 8.90786C5.59794 9.41371 6.28402 9.69789 6.9994 9.69789C7.71477 9.69789 8.40085 9.41371 8.9067 8.90786C9.41255 8.40201 9.69673 7.71593 9.69673 7.00056C9.69673 6.28518 9.41255 5.5991 8.9067 5.09325C8.40085 4.58741 7.71477 4.30322 6.9994 4.30322ZM6.9994 8.75231C6.53465 8.75231 6.08894 8.56769 5.76031 8.23906C5.43168 7.91043 5.24706 7.46472 5.24706 6.99997C5.24706 6.53522 5.43168 6.08951 5.76031 5.76089C6.08894 5.43226 6.53465 5.24764 6.9994 5.24764C7.46414 5.24764 7.90986 5.43226 8.23848 5.76089C8.56711 6.08951 8.75173 6.53522 8.75173 6.99997C8.75173 7.46472 8.56711 7.91043 8.23848 8.23906C7.90986 8.56769 7.46414 8.75231 6.9994 8.75231Z" fill="#F0EFF9"/>
<path d="M9.80352 4.83286C10.1508 4.83286 10.4323 4.55132 10.4323 4.20403C10.4323 3.85673 10.1508 3.5752 9.80352 3.5752C9.45622 3.5752 9.17468 3.85673 9.17468 4.20403C9.17468 4.55132 9.45622 4.83286 9.80352 4.83286Z" fill="#F0EFF9"/>
<path d="M11.9776 3.56476C11.8425 3.21603 11.6362 2.89934 11.3717 2.63496C11.1072 2.37058 10.7904 2.16434 10.4417 2.02943C10.0335 1.87622 9.60235 1.79338 9.16649 1.78443C8.60474 1.75993 8.42683 1.75293 7.00233 1.75293C5.57783 1.75293 5.39524 1.75293 4.83816 1.78443C4.40264 1.79292 3.97177 1.87578 3.56416 2.02943C3.21529 2.16418 2.89844 2.37037 2.63394 2.63477C2.36944 2.89917 2.16313 3.21594 2.02824 3.56476C1.875 3.97287 1.79235 4.40408 1.78383 4.83993C1.75874 5.4011 1.75116 5.57901 1.75116 7.0041C1.75116 8.4286 1.75116 8.61001 1.78383 9.16826C1.79258 9.6046 1.87483 10.0351 2.02824 10.444C2.1635 10.7927 2.37002 11.1094 2.63458 11.3737C2.89915 11.6381 3.21595 11.8443 3.56474 11.9793C3.97158 12.1387 4.40263 12.2275 4.83933 12.2418C5.40108 12.2663 5.57899 12.2739 7.00349 12.2739C8.42799 12.2739 8.61058 12.2739 9.16766 12.2418C9.60347 12.233 10.0346 12.1503 10.4428 11.9974C10.7915 11.8622 11.1082 11.6558 11.3726 11.3913C11.6371 11.1269 11.8435 10.8102 11.9787 10.4615C12.1322 10.0532 12.2144 9.62268 12.2232 9.18635C12.2482 8.62518 12.2558 8.44726 12.2558 7.02218C12.2558 5.5971 12.2558 5.41626 12.2232 4.85801C12.2164 4.41601 12.1333 3.97849 11.9776 3.56476ZM11.2671 9.1251C11.2633 9.46127 11.202 9.79432 11.0857 10.1098C10.9981 10.3366 10.8639 10.5426 10.692 10.7145C10.52 10.8864 10.3139 11.0204 10.087 11.1078C9.77504 11.2236 9.44554 11.285 9.11283 11.2893C8.55866 11.3149 8.40233 11.3213 6.98133 11.3213C5.55916 11.3213 5.41391 11.3213 4.84924 11.2893C4.5167 11.2852 4.18735 11.2238 3.87566 11.1078C3.64798 11.0209 3.44108 10.8872 3.26835 10.7152C3.09561 10.5433 2.9609 10.337 2.87291 10.1098C2.75825 9.79771 2.69692 9.46859 2.69149 9.13618C2.66641 8.58201 2.66058 8.42568 2.66058 7.00468C2.66058 5.5831 2.66058 5.43785 2.69149 4.8726C2.69526 4.53661 2.75663 4.20376 2.87291 3.88851C3.05083 3.42826 3.41541 3.06601 3.87566 2.88985C4.1875 2.77443 4.51676 2.71308 4.84924 2.70843C5.40399 2.68335 5.55974 2.67635 6.98133 2.67635C8.40291 2.67635 8.54874 2.67635 9.11283 2.70843C9.44556 2.71243 9.77512 2.7738 10.087 2.88985C10.3139 2.97751 10.5199 3.11163 10.6919 3.28361C10.8639 3.4556 10.998 3.66164 11.0857 3.88851C11.2003 4.20057 11.2616 4.52969 11.2671 4.8621C11.2922 5.41685 11.2986 5.5726 11.2986 6.99418C11.2986 8.41518 11.2986 8.56801 11.2735 9.12568H11.2671V9.1251Z" fill="#F0EFF9"/>
</svg>
