<svg width="10" height="10" viewBox="0 0 10 10" fill="none" xmlns="http://www.w3.org/2000/svg">
<g clip-path="url(#clip0_6_303)">
<path d="M9.44444 0H0.555556C0.408213 0 0.266905 0.0585316 0.162718 0.162718C0.0585316 0.266905 0 0.408213 0 0.555556V9.44444C0 9.59179 0.0585316 9.7331 0.162718 9.83728C0.266905 9.94147 0.408213 10 0.555556 10H9.44444C9.59179 10 9.7331 9.94147 9.83728 9.83728C9.94147 9.7331 10 9.59179 10 9.44444V0.555556C10 0.408213 9.94147 0.266905 9.83728 0.162718C9.7331 0.0585316 9.59179 0 9.44444 0ZM2.96611 8.52056H1.48167V3.74833H2.96611V8.52056ZM2.22389 3.09667C1.9958 3.09667 1.77706 3.00606 1.61578 2.84478C1.4545 2.6835 1.36389 2.46475 1.36389 2.23667C1.36389 2.00858 1.4545 1.78984 1.61578 1.62856C1.77706 1.46727 1.9958 1.37667 2.22389 1.37667C2.45198 1.37667 2.67072 1.46727 2.832 1.62856C2.99328 1.78984 3.08389 2.00858 3.08389 2.23667C3.08389 2.46475 2.99328 2.6835 2.832 2.84478C2.67072 3.00606 2.45198 3.09667 2.22389 3.09667ZM8.52111 8.52056H7.03833V6.2C7.03833 5.64667 7.02833 4.935 6.26722 4.935C5.495 4.935 5.37778 5.53833 5.37778 6.16111V8.52111H3.89611V3.74889H5.31833V4.40111H5.33889C5.53611 4.02611 6.02056 3.63056 6.74111 3.63056C8.24333 3.63056 8.52056 4.61833 8.52056 5.90389L8.52111 8.52056Z" fill="#F0EFF9"/>
</g>
<defs>
<clipPath id="clip0_6_303">
<rect width="10" height="10" fill="white"/>
</clipPath>
</defs>
</svg>
