<svg width="28" height="28" viewBox="0 0 28 28" fill="none" xmlns="http://www.w3.org/2000/svg">
<path d="M23.3333 4.66895H4.66668C3.37984 4.66895 2.33334 5.71545 2.33334 7.00228V21.0023C2.33334 22.2891 3.37984 23.3356 4.66668 23.3356H23.3333C24.6202 23.3356 25.6667 22.2891 25.6667 21.0023V7.00228C25.6667 5.71545 24.6202 4.66895 23.3333 4.66895ZM23.3333 7.00228V7.59845L14 14.8586L4.66668 7.59961V7.00228H23.3333ZM4.66668 21.0023V10.5536L13.2837 17.2561C13.488 17.4166 13.7402 17.5038 14 17.5038C14.2598 17.5038 14.5121 17.4166 14.7163 17.2561L23.3333 10.5536L23.3357 21.0023H4.66668Z" fill="white"/>
</svg>
