<svg width="28" height="28" viewBox="0 0 28 28" fill="none" xmlns="http://www.w3.org/2000/svg">
<path d="M22.9052 9.33143C22.9203 9.5356 22.9203 9.7386 22.9203 9.9416C22.9203 16.1541 18.1918 23.3128 9.55034 23.3128C6.88801 23.3128 4.41468 22.5416 2.33334 21.2023C2.71134 21.2454 3.07534 21.2606 3.46851 21.2606C5.58367 21.2657 7.63893 20.5584 9.30301 19.2528C8.32234 19.235 7.37168 18.9115 6.58379 18.3273C5.79589 17.7431 5.21009 16.9275 4.90818 15.9943C5.19868 16.0374 5.49034 16.0666 5.79601 16.0666C6.21718 16.0666 6.64068 16.0083 7.03384 15.9068C5.96956 15.6919 5.01256 15.115 4.32557 14.2742C3.63857 13.4335 3.26399 12.3807 3.26551 11.2949V11.2366C3.89201 11.5854 4.61884 11.8036 5.38884 11.8328C4.74378 11.4041 4.21485 10.8225 3.84924 10.1397C3.48363 9.45691 3.29271 8.69426 3.29351 7.91976C3.29351 7.0471 3.52568 6.24676 3.93284 5.5491C5.11367 7.00162 6.58643 8.18992 8.25574 9.03703C9.92504 9.88414 11.7537 10.3712 13.6232 10.4666C13.5508 10.1166 13.5065 9.75376 13.5065 9.38976C13.5062 8.77255 13.6275 8.16133 13.8636 7.59104C14.0997 7.02076 14.4458 6.50258 14.8822 6.06615C15.3187 5.62971 15.8368 5.28358 16.4071 5.04752C16.9774 4.81147 17.5886 4.69012 18.2058 4.69043C19.5592 4.69043 20.7807 5.25743 21.6393 6.17443C22.6914 5.97098 23.7003 5.58692 24.6213 5.03926C24.2707 6.12522 23.5361 7.04605 22.5552 7.62926C23.4883 7.52284 24.4002 7.27746 25.2607 6.90126C24.618 7.83821 23.8216 8.65983 22.9052 9.33143Z" fill="white"/>
</svg>
